<?xml version="1.0" encoding="UTF-8"?>
<svg xmlns="http://www.w3.org/2000/svg" version="1.1" viewBox="0 0 706.2 257.6">
  <defs>
    <style>
      .cls-1, .cls-2 {
        fill: #fff;
      }

      .cls-2, .cls-3 {
        fill-rule: evenodd;
      }

      .cls-3 {
        fill: #003971;
      }

      .cls-4 {
        display: none;
      }
    </style>
  </defs>
  <!-- Generator: Adobe Illustrator 28.6.0, SVG Export Plug-In . SVG Version: 1.2.0 Build 709)  -->
  <g>
    <g id="Layer_1">
      <g class="cls-4">
        <polygon class="cls-3" points="383.8 171.8 406.8 85.8 429.7 85.8 410.6 155.7 446.7 155.7 442.4 171.8 383.8 171.8"/>
        <polygon class="cls-3" points="451.3 171.8 474.4 85.8 536.4 85.8 532.1 101.7 493.1 101.7 488.2 120.2 523.9 120.2 519.8 137 484.1 137 479 155.9 517.8 155.9 513.6 171.8 451.5 171.8 451.3 171.8"/>
        <polygon class="cls-3" points="550.6 171.8 541 85.8 562 85.8 569 149.9 599.4 85.8 621.2 85.8 577.4 171.8 550.6 171.8"/>
        <polygon class="cls-3" points="85.9 171.8 85.9 85.9 143.1 85.9 143.1 108.2 116.7 108.2 116.7 118.5 140.1 118.5 140.1 140.7 116.2 140.7 116.2 171.8 85.9 171.8"/>
        <path class="cls-3" d="M238.8,129c0,6.2-1.1,12-3.4,17.4-2.2,5.4-5.5,10.3-9.8,14.6-4.3,4.2-9.3,7.5-14.9,9.8-5.6,2.3-11.4,3.4-17.4,3.4s-11.9-1.1-17.5-3.4c-5.6-2.3-10.5-5.6-14.7-9.8-4.4-4.3-7.7-9.1-10-14.6-2.3-5.4-3.4-11.3-3.4-17.4s1.1-12,3.4-17.4c2.3-5.4,5.6-10.3,10-14.6,4.2-4.2,9.1-7.5,14.7-9.8,5.6-2.3,11.4-3.5,17.5-3.5s11.9,1.2,17.5,3.5c5.6,2.3,10.5,5.6,14.8,9.8,4.3,4.2,7.6,9.1,9.8,14.5,2.2,5.5,3.4,11.3,3.4,17.4M193.3,144.9c4,0,7.4-1.5,10-4.5,2.6-3,4-6.8,4-11.4s-1.3-8.3-4-11.4c-2.7-3-6-4.6-10-4.6s-7.4,1.5-10,4.5c-2.6,3-4,6.8-4,11.4s1.3,8.5,3.9,11.4c2.6,3,6,4.5,10.1,4.5"/>
        <path class="cls-3" d="M276.6,124.7h3.3c3.8,0,6.6-.6,8.3-1.9,1.7-1.3,2.6-3.3,2.6-6.1s-.8-5.5-2.4-6.9c-1.6-1.4-4.4-2.1-8.2-2.1h-3.5v17ZM247.4,171.8v-85.9h27.9c10.9,0,17.6.5,21.9,1.3,11.9,2.4,23,12.5,23.1,25.4,0,12.3-6.6,22.6-16.9,24.6l21.7,34.6h-34.4l-14.2-27.7v27.7h-29.2Z"/>
        <polygon class="cls-3" points="342.5 171.8 342.5 113.2 325 113.2 325 85.9 390.4 85.9 390.4 113.2 373 113.2 373 171.8 342.5 171.8"/>
      </g>
      <path class="cls-2" d="M112.6,202.7v1.6c0-.6,0-1.1,0-1.6h0Z"/>
      <path class="cls-2" d="M112.7,204.3"/>
      <path class="cls-2" d="M86.6,38.3c-1.8.9-3.5,1.9-5.1,2.9l3.2,5.5,8,14c5.1-3.6,11.1-5.5,17.4-5.4,6.3,0,12.2,2.1,17.2,5.9l10.9-19.8c-1.2-.8-2.9-1.9-4.8-2.9-2.4,4.5-5.9,7-8.7,5.9-2.8-1-3.9-5.2-2.8-10.2-1.9-.5-3.9-.8-5.8-1.1-.7,5-3.2,8.6-6.1,8.6-2.9,0-5.4-3.5-6.1-8.6-2,.2-3.9.6-5.9,1,1.1,5,0,9.1-2.8,10.1-2.8,1-6.3-1.5-8.7-6Z"/>
      <path class="cls-2" d="M150.8,92c-21.3,0-38.7-10.4-40.6-24.2l-.2-1.2-.7,1.1c-1.9,13.8-19,24.3-40.3,24.3s-12.5-.5-17.8-2.2l-.2,36.2c0,41.2,33.1,75.1,58.8,91.8,29.7-20.6,58.6-47.5,58.6-91.8v-36.3c-5.3,1.7-11.3,2.2-17.6,2.2ZM95,149c1,2.3,2.4,4.4,4.2,6.3,1.9,1.9,4,3.3,6.4,4.3,2.4.9,4.8,1.4,7.3,1.4s4.9-.5,7.3-1.4c2.4-.9,4.6-2.4,6.5-4.3l11.7,11.8c-3.5,3.5-7.5,6.2-11.9,7.9-4.4,1.7-8.9,2.6-13.6,2.6s-9.2-.9-13.6-2.6c-4.4-1.7-8.4-4.4-11.9-7.9-3.4-3.5-6-7.4-7.8-11.7-1.8-4.3-2.7-8.9-2.7-13.8s.9-9.5,2.7-13.9c1.8-4.3,4.4-8.2,7.8-11.6,3.5-3.5,7.5-6.2,12-7.9,4.4-1.8,9-2.6,13.6-2.6s9.1.9,13.5,2.6c4.4,1.8,8.4,4.4,11.9,7.9l-11.7,11.7c-1.9-1.9-4.1-3.3-6.5-4.3-2.4-.9-4.9-1.4-7.3-1.4s-4.9.5-7.3,1.4c-2.4.9-4.5,2.4-6.4,4.3-1.8,1.9-3.2,4-4.2,6.4-1,2.4-1.5,4.8-1.5,7.4s.5,5.1,1.5,7.4Z"/>
      <path class="cls-2" d="M102.9,74"/>
      <path class="cls-2" d="M249.7,170.5c-5.3,0-10.5-1-15.5-3s-9.6-5-13.6-9c-3.9-4-6.8-8.4-8.9-13.4-2.1-5-3.1-10.2-3.1-15.7s1-10.9,3.1-15.8c2.1-5,5-9.4,8.9-13.3,4-4,8.6-7.1,13.7-9.1,5.1-2,10.2-3,15.5-3s10.4,1,15.5,3c5,2,9.6,5,13.6,9.1l-13.3,13.3c-2.2-2.2-4.6-3.8-7.4-4.9s-5.5-1.6-8.4-1.6-5.6.6-8.3,1.6-5.2,2.7-7.3,4.9c-2.1,2.2-3.7,4.6-4.8,7.3s-1.7,5.5-1.7,8.5.6,5.8,1.7,8.5,2.7,5,4.8,7.2c2.2,2.2,4.6,3.8,7.3,4.9,2.7,1.1,5.5,1.6,8.3,1.6s5.7-.6,8.4-1.6,5.2-2.7,7.4-4.9l13.3,13.4c-4,4-8.6,7.1-13.6,9-5,2-10.2,3-15.6,3h0ZM331.4,170.6l-3.2-10h-25.9l-3.4,10h-20l28-82.1h17.9l26.5,82.1h-19.9ZM308.8,141.7h13.3l-6.5-19.9-6.8,19.9h0ZM381.8,149.4c-1,.2-2,.3-2.9.3s-2,.2-3,.2v20.7h-18.9v-81.8h18.9c4.7,0,9.1,1,13.2,2.6,4.1,1.6,7.7,3.9,10.8,6.6,3.1,2.7,5.5,6,7.3,9.6s2.6,7.6,2.6,11.8-1,8.5-2.8,12.3c-1.8,3.8-4.5,7-7.8,9.8l18.1,29.3h-22.3l-13.2-21.3h0q0-.1,0-.1ZM375.9,130.9c2,0,3.9-.4,5.8-1.1,1.8-.6,3.4-1.5,4.8-2.5s2.5-2.2,3.2-3.6c.8-1.4,1.2-2.9,1.2-4.4s-.4-3-1.2-4.4c-.8-1.3-1.8-2.5-3.2-3.6s-3-1.9-4.8-2.5-3.8-1-5.8-1.1v23.2h0ZM475.2,107.4h-30.7v12.4h24.3v18.9h-24.3v31.9h-18.9v-82.1h49.6v18.9h0ZM531.9,170.6h-48.9v-82.3h18.9v63.4h30v18.9h0ZM586.6,170.6l-3.2-10h-25.9l-3.4,10h-20l28-82.1h17.9l26.5,82.1h-19.9ZM564,141.7h13.3l-6.5-19.9-6.8,19.9h0ZM678.6,87.8h-22.2l-13.1,21.9-13.6-21.9h-22.2l24.6,40.2-25.6,42.7h22.1l14.8-24.4,15,24.4h22.3l-26.3-42.8,24.2-40.1h0Z"/>
      <g>
        <path class="cls-2" d="M256,184.1c0-.6-.5-1.1-1.1-1.1s-1.1.5-1.1,1.1.4,1,1,1.1l-3.4,3.6-1.4-6c.5-.1.9-.6,1-1.1,0-.6-.5-1.1-1.1-1.1s-1.1.5-1.1,1.1.4,1.1,1,1.1l-1.5,5.8-3.9-3.4c.6,0,1.1-.5,1.1-1.1s-.5-1.1-1.1-1.1-1.1.5-1.1,1.1.4,1,1,1.1l.2,5.2h10.6l.2-5.2c.6,0,1-.5,1-1.1h-.1Z"/>
        <g>
          <path class="cls-1" d="M233.9,194.9c0-.7-.4-1.2-1-1.6s-1.3-.6-2.1-.6-1.1.1-1.6.3-.8.4-1,.7c-.2.3-.3.7-.3,1.1s0,.6.2.9.4.4.6.6c.3.2.6.3.9.4s.7.2,1,.3l1.5.4c.6.2,1.2.3,1.8.6s1.1.6,1.5.9c.4.4.8.8,1.1,1.3s.4,1.1.4,1.8-.2,1.8-.7,2.5-1.2,1.3-2.1,1.7c-.9.4-2,.6-3.4.6s-2.4-.2-3.3-.6c-1-.4-1.7-1-2.2-1.7-.5-.7-.8-1.7-.8-2.7h2.9c0,.6.2,1.1.5,1.4.3.4.7.7,1.2.8s1.1.3,1.7.3,1.2-.1,1.7-.3c.5-.2.8-.4,1.1-.8s.4-.7.4-1.2c0-.4-.1-.8-.4-1.1-.2-.3-.6-.5-1-.7s-1-.3-1.5-.5l-1.8-.5c-1.3-.3-2.4-.9-3.2-1.6-.8-.7-1.2-1.6-1.2-2.8s.3-1.8.8-2.5,1.2-1.3,2.1-1.7,1.9-.6,3.1-.6,2.2.2,3,.6,1.6,1,2.1,1.7.7,1.5.8,2.5h-2.9,0Z"/>
          <path class="cls-1" d="M244.3,206.7v-16.3h10.6v2.5h-7.7v4.4h7.1v2.5h-7.1v4.4h7.7v2.5h-10.6Z"/>
          <path class="cls-1" d="M272.8,190.4h3v10.6c0,1.2-.3,2.2-.8,3.1s-1.3,1.6-2.3,2.1c-1,.5-2.1.7-3.5.7s-2.5-.2-3.5-.7c-1-.5-1.7-1.2-2.3-2.1s-.8-1.9-.8-3.1v-10.6h3v10.4c0,.7.2,1.3.4,1.8s.7,1,1.3,1.2,1.2.4,2,.4,1.4-.2,2-.4,1-.7,1.3-1.2c.3-.5.4-1.1.4-1.8v-10.4h-.1,0Z"/>
          <path class="cls-1" d="M293.8,206.7v-16.3h6.1c1.2,0,2.3.2,3.1.7s1.5,1.1,2,1.9c.4.8.7,1.7.7,2.8s-.2,2-.7,2.8c-.4.8-1.1,1.5-2,1.9-.8.4-1.9.7-3.2.7h-4v-2.4h3.6c.7,0,1.3-.1,1.8-.4s.8-.6,1.1-1.1.3-1,.3-1.5-.1-1.1-.3-1.5-.6-.8-1.1-1c-.4-.2-1.1-.4-1.8-.4h-2.7v13.8h-3Z"/>
          <path class="cls-1" d="M315,206.7h-3.1l5.7-16.3h3.6l5.8,16.3h-3.1l-4.4-12.9h-.1l-4.4,12.9h0ZM315.1,200.3h8.6v2.4h-8.6v-2.4Z"/>
          <path class="cls-1" d="M333.7,206.7v-16.3h6.1c1.2,0,2.3.2,3.1.7s1.5,1.1,2,1.8.7,1.7.7,2.7-.2,2-.7,2.7-1.1,1.3-2,1.8c-.8.4-1.9.6-3.2.6h-4.4v-2.5h4c.7,0,1.3-.1,1.8-.3.4-.2.8-.5,1.1-.9s.3-.9.3-1.5-.1-1.1-.3-1.5c-.2-.4-.6-.7-1.1-1-.4-.2-1.1-.3-1.8-.3h-2.7v13.8h-3q0-.1,0-.1ZM342.2,199.3l4,7.4h-3.3l-4-7.4h3.2Z"/>
          <path class="cls-1" d="M366.9,195.9h-3c-.1-.5-.2-.9-.4-1.3s-.5-.7-.8-1c-.3-.3-.7-.4-1.2-.6-.4-.1-.9-.2-1.4-.2-.9,0-1.7.2-2.4.7s-1.2,1.1-1.6,2-.6,1.9-.6,3.1.2,2.3.6,3.1,1,1.5,1.6,1.9c.7.4,1.5.7,2.4.7s1,0,1.3-.2c.4-.1.8-.3,1.2-.6.3-.3.6-.6.8-1s.4-.8.5-1.3h3c-.1.8-.3,1.5-.7,2.2-.4.7-.8,1.3-1.5,1.8s-1.3.9-2.1,1.2c-.8.3-1.7.4-2.6.4-1.5,0-2.7-.3-3.8-1s-2-1.6-2.6-2.9c-.7-1.2-1-2.7-1-4.5s.3-3.2,1-4.5c.7-1.2,1.6-2.2,2.7-2.9s2.4-1,3.8-1,1.7.1,2.5.4,1.5.6,2.1,1.1,1.1,1.1,1.5,1.8.7,1.5.8,2.4h0c0-.1,0-.1,0-.1Z"/>
          <path class="cls-1" d="M374.3,206.7v-16.3h10.6v2.5h-7.7v4.4h7.1v2.5h-7.1v4.4h7.7v2.5h-10.6,0Z"/>
          <path class="cls-1" d="M395.5,190.4v16.3h-3v-16.3h3Z"/>
          <path class="cls-1" d="M403.4,206.7v-16.3h6.1c1.2,0,2.3.2,3.1.7s1.5,1.1,2,1.8.7,1.7.7,2.7-.2,2-.7,2.7-1.1,1.3-2,1.8c-.8.4-1.9.6-3.2.6h-4.4v-2.5h4c.7,0,1.3-.1,1.8-.3.4-.2.8-.5,1.1-.9s.3-.9.3-1.5-.1-1.1-.3-1.5c-.2-.4-.6-.7-1.1-1-.4-.2-1.1-.3-1.8-.3h-2.7v13.8h-3ZM411.8,199.3l4,7.4h-3.3l-4-7.4h3.2Z"/>
          <path class="cls-1" d="M437.2,198.5c0,1.7-.3,3.2-1,4.5s-1.6,2.2-2.7,2.9-2.4,1-3.8,1-2.7-.3-3.8-1-2-1.6-2.7-2.9-1-2.7-1-4.5.3-3.2,1-4.5,1.6-2.2,2.7-2.9,2.4-1,3.8-1,2.7.3,3.8,1,2,1.6,2.7,2.9,1,2.7,1,4.5ZM434.2,198.5c0-1.2-.2-2.3-.6-3.1s-.9-1.5-1.6-2-1.5-.7-2.4-.7-1.7.2-2.4.7-1.2,1.1-1.6,2c-.4.8-.6,1.9-.6,3.1s.2,2.3.6,3.1.9,1.5,1.6,2,1.5.7,2.4.7,1.7-.2,2.4-.7,1.2-1.1,1.6-2,.6-1.9.6-3.1Z"/>
          <path class="cls-1" d="M460.3,206.7h-5.5v-16.3h5.7c1.6,0,3,.3,4.2,1,1.2.7,2.1,1.6,2.7,2.8s1,2.7,1,4.4-.3,3.1-1,4.4c-.6,1.2-1.5,2.1-2.7,2.8s-2.6,1-4.3,1h0ZM457.8,204.1h2.4c1.1,0,2.1-.2,2.9-.6.8-.4,1.3-1.1,1.7-1.8s.6-1.8.6-3.1-.2-2.3-.6-3.1c-.4-.8-1-1.5-1.7-1.8s-1.7-.6-2.8-.6h-2.5v11.2h0Z"/>
          <path class="cls-1" d="M475.7,206.7v-16.3h10.6v2.5h-7.7v4.4h7.1v2.5h-7.1v4.4h7.7v2.5h-10.6Z"/>
          <path class="cls-1" d="M518.2,195.9h-3c-.1-.5-.2-.9-.4-1.3-.2-.4-.5-.7-.8-1-.3-.3-.7-.4-1.2-.6-.4-.1-.9-.2-1.4-.2-.9,0-1.7.2-2.4.7s-1.2,1.1-1.6,2-.6,1.9-.6,3.1.2,2.3.6,3.1,1,1.5,1.6,1.9c.7.4,1.5.7,2.4.7s1,0,1.4-.2.8-.3,1.2-.6c.3-.3.6-.6.8-1s.4-.8.5-1.3h3c-.1.8-.3,1.5-.7,2.2s-.8,1.3-1.5,1.8-1.3.9-2.1,1.2c-.8.3-1.7.4-2.6.4-1.5,0-2.7-.3-3.8-1s-2-1.6-2.6-2.9c-.7-1.2-1-2.7-1-4.5s.3-3.2,1-4.5c.7-1.2,1.6-2.2,2.7-2.9s2.4-1,3.8-1,1.7.1,2.5.4,1.5.6,2.1,1.1,1.1,1.1,1.5,1.8.7,1.5.8,2.4h-.1q0-.1,0-.1Z"/>
          <path class="cls-1" d="M540.1,198.5c0,1.7-.3,3.2-1,4.5s-1.6,2.2-2.7,2.9-2.4,1-3.8,1-2.7-.3-3.8-1-2-1.6-2.7-2.9-1-2.7-1-4.5.3-3.2,1-4.5,1.6-2.2,2.7-2.9,2.4-1,3.8-1,2.7.3,3.8,1,2,1.6,2.7,2.9c.7,1.2,1,2.7,1,4.5ZM537.1,198.5c0-1.2-.2-2.3-.6-3.1s-.9-1.5-1.6-2-1.5-.7-2.4-.7-1.7.2-2.4.7-1.2,1.1-1.6,2c-.4.8-.6,1.9-.6,3.1s.2,2.3.6,3.1.9,1.5,1.6,2,1.5.7,2.4.7,1.7-.2,2.4-.7,1.2-1.1,1.6-2,.6-1.9.6-3.1Z"/>
          <path class="cls-1" d="M560.9,190.4v16.3h-2.6l-7.7-11.1h-.1v11.1h-3v-16.3h2.6l7.7,11.1h.2v-11.1h2.9Z"/>
          <path class="cls-1" d="M568.8,206.7v-16.3h10.4v2.5h-7.5v4.4h6.8v2.5h-6.8v6.9h-3,0Z"/>
          <path class="cls-1" d="M589.5,190.4v16.3h-3v-16.3h3Z"/>
          <path class="cls-1" d="M599.5,206.7h-3.1l5.7-16.3h3.6l5.8,16.3h-3.1l-4.4-12.9h-.1l-4.4,12.9h0ZM599.6,200.3h8.6v2.4h-8.6v-2.4Z"/>
          <path class="cls-1" d="M631.6,190.4v16.3h-2.6l-7.7-11.1h-.1v11.1h-3v-16.3h2.6l7.7,11.1h.2v-11.1h2.9Z"/>
          <path class="cls-1" d="M653.5,195.9h-3c-.1-.5-.2-.9-.4-1.3-.2-.4-.5-.7-.8-1-.3-.3-.7-.4-1.2-.6-.4-.1-.9-.2-1.4-.2-.9,0-1.7.2-2.4.7s-1.2,1.1-1.6,2-.6,1.9-.6,3.1.2,2.3.6,3.1,1,1.5,1.6,1.9c.7.4,1.5.7,2.4.7s1,0,1.4-.2.8-.3,1.2-.6c.3-.3.6-.6.8-1s.4-.8.5-1.3h3c-.1.8-.3,1.5-.7,2.2s-.8,1.3-1.5,1.8-1.3.9-2.1,1.2c-.8.3-1.7.4-2.6.4-1.5,0-2.7-.3-3.8-1s-2-1.6-2.6-2.9c-.7-1.2-1-2.7-1-4.5s.3-3.2,1-4.5c.7-1.2,1.6-2.2,2.7-2.9s2.4-1,3.8-1,1.7.1,2.5.4,1.5.6,2.1,1.1,1.1,1.1,1.5,1.8.7,1.5.8,2.4h-.1q0-.1,0-.1ZM645.7,206.7h1.6v.7c.4,0,.8.3,1.2.6s.5.8.5,1.3-.3,1.3-1,1.8c-.7.4-1.6.7-2.9.7v-1.4c.6,0,1.1,0,1.4-.2s.6-.4.6-.8-.1-.6-.4-.7-.7-.3-1.2-.3l.3-1.6h0Z"/>
          <path class="cls-1" d="M662.9,206.7h-3.1l5.7-16.3h3.6l5.8,16.3h-3.1l-4.4-12.9h-.1l-4.4,12.9h0ZM663,200.3h8.6v2.4h-8.6v-2.4Z"/>
        </g>
      </g>
    </g>
  </g>
</svg>