<?xml version="1.0" encoding="UTF-8"?>
<svg xmlns="http://www.w3.org/2000/svg" version="1.1" viewBox="0 0 2200 2200">
  <defs>
    <style>
      .cls-1 {
        fill: #009eff;
      }
    </style>
  </defs>
  <!-- Generator: Adobe Illustrator 28.6.0, SVG Export Plug-In . SVG Version: 1.2.0 Build 709)  -->
  <g>
    <g id="Objects">
      <g>
        <path class="cls-1" d="M1249.3,1694.8c0,105.1-85.2,190.3-190.3,190.3s-190.3-85.2-190.3-190.3h380.6Z"/>
        <path class="cls-1" d="M1718.6,1565.4c0,51.5-41.7,93.2-93.2,93.2H492.5c-51.5,0-93.2-41.7-93.2-93.2s5-34.6,14-49.1c9-14.5,21.9-26.5,37.7-34.4,33.7-16.8,61.1-42.4,80.2-73.1,19.1-30.8,29.7-66.8,29.7-104.4v-365.3c0-234.7,162.3-431.4,380.7-484.2-.6-4.6-.8-9.2-.8-13.9,0-65.3,52.9-118.2,118.2-118.2s118.2,52.9,118.2,118.2-.3,9.4-.8,13.9c272.9,13.7,344.5,322,369.3,430,7.4,32.3,11.2,65.3,11.2,98.5.1,108.2.2,321,.2,321,0,75.2,42.6,144,109.9,177.6,15.8,7.9,28.7,19.9,37.7,34.4,9,14.5,14,31.4,14,49.1Z"/>
      </g>
    </g>
  </g>
</svg>